# AST/ASF file generated using VICON BodyLanguage
# -----------------------------------------------
:version 1.10
:name VICON
:units
  mass 1.0
  length 0.45
  angle deg
:documentation
   .ast/.asf automatically generated from VICON data using
   VICON BodyBuilder and BodyLanguage model FoxedUp or BRILLIANT.MOD
:root
   order TX TY TZ RX RY RZ
   axis XYZ
   position 0 0 0  
   orientation 0 0 0 
:bonedata
  begin
     id 1 
     name lhipjoint
     direction 0.635376 -0.686425 0.353719 
     length 2.47244 
     axis 0 0 0  XYZ
  end
  begin
     id 2 
     name lfemur
     direction 0.34202 -0.939693 0  
     length 7.25268  
     axis 0 0 20  XYZ
    dof rx ry rz
    limits (-160.0 20.0)
           (-70.0 70.0)
           (-60.0 70.0)
  end
  begin
     id 3 
     name ltibia
     direction 0.34202 -0.939693 0   
     length 7.6767   
     axis 0 0 20   XYZ
    dof rx
    limits (-10.0 170.0)
  end
  begin
     id 4 
     name lfoot
     direction 0.0803374 -0.220725 0.972022   
     length 2.22945   
     axis -90 7.62852e-016 20   XYZ
    dof rx rz
    limits (-45.0 90.0)
           (-70.0 20.0)
  end
  begin
     id 5 
     name ltoes
     direction 1.53579e-011 -4.21994e-011 1   
     length 1.11848   
     axis -90 7.62852e-016 20   XYZ
    dof rx
    limits (-90.0 20.0)
  end
  begin
     id 6 
     name rhipjoint
     direction -0.664428 -0.664335 0.342336   
     length 2.55466  
     axis 0 0 0  XYZ 
  end
  begin
     id 7 
     name rfemur
     direction -0.34202 -0.939693 0   
     length 6.83172   
     axis 0 0 -20   XYZ
    dof rx ry rz
    limits (-160.0 20.0)
           (-70.0 70.0)
           (-70.0 60.0)
  end
  begin
     id 8 
     name rtibia
     direction -0.34202 -0.939693 0   
     length 7.62692   
     axis 0 0 -20   XYZ
    dof rx
    limits (-10.0 170.0)
 end
 begin
     id 9 
     name rfoot
     direction -0.0949276 -0.260811 0.960711   
     length 2.19684  
     axis -90 -7.62852e-016 -20   XYZ
    dof rx rz
    limits (-45.0 90.0)
           (-20.0 70.0)
  end
  begin
     id 10 
     name rtoes
     direction -1.53543e-011 -4.2183e-011 1   
     length 1.09848   
     axis -90 -7.62852e-016 -20   XYZ
    dof rx
    limits (-90.0 20.0)
  end
  begin
     id 11 
     name lowerback
     direction 0.0118782 0.999815 -0.0151555   
     length 2.15772   
     axis 0 0 0   XYZ
    dof rx ry rz
    limits (-20.0 45.0)
           (-30.0 30.0)
           (-30.0 30.0)
  end
  begin
     id 12 
     name upperback
     direction 0.00130825 0.999065 0.0432113   
     length 2.14863   
     axis 0 0 0   XYZ
    dof rx ry rz
    limits (-20.0 45.0)
           (-30.0 30.0)
           (-30.0 30.0)
  end
  begin
     id 13 
     name thorax
     direction -0.00347005 0.998773 0.0494011   
     length 2.14936   
     axis 0 0 0   XYZ
    dof rx ry rz
    limits (-20.0 45.0)
           (-30.0 30.0)
           (-30.0 30.0)
  end
  begin
     id 14 
     name lowerneck
     direction -0.0262159 0.99424 0.103921   
     length 1.69373   
     axis 0 0 0   XYZ
    dof rx ry rz
    limits (-20.0 45.0)
           (-30.0 30.0)
           (-30.0 30.0)
  end
  begin
     id 15 
     name upperneck
     direction 0.0353511 0.977394 -0.20845   
     length 1.70857   
     axis 0 0 0   XYZ
    dof rx ry rz
    limits (-20.0 45.0)
           (-30.0 30.0)
           (-30.0 30.0)
  end
  begin
     id 16
     name head
     direction 0.0139214 0.996594 -0.0812836  
     length 1.72777  
     axis 0 0 0   XYZ
    dof rx ry rz
    limits (-20.0 45.0)
           (-30.0 30.0)
           (-30.0 30.0)
  end
  begin
     id 17 
     name lclavicle
     direction 0.841247 0.537205 -0.0609508  
     length 3.55371  
     axis 0 0 0   XYZ
    dof ry rz
    limits (-20.0 10.0)
           (0.0 20.0)
  end
  begin
     id 18 
     name lhumerus
     direction 1 -4.48964e-011 1.60116e-018   
     length 4.91377   
     axis -180 -30 -90   XYZ
    dof rx ry rz
    limits (-60.0 90.0)
           (-90.0 90.0)
           (-90.0 90.0)
  end
  begin
     id 19
     name lradius
     direction 1 -4.48989e-011 -8.93847e-027   
     length 3.00291   
     axis -180 -30 -90   XYZ
    dof rx
    limits (-10.0 170.0)
  end
  begin
     id 20
     name lwrist
     direction 1 -4.48932e-011 -7.31504e-027   
     length 1.50145   
     axis 5.74121e-015 90 90   XYZ
    dof ry
    limits (-180.0 0.0)
 end
  begin
     id 21 
     name lhand
     direction 1 -4.48971e-011 -1.46301e-026   
     length 0.450922   
     axis 9.33524e-015 90 90   XYZ
    dof rx rz
    limits (-90.0 90.0)
           (-45.0 45.0)
  end
  begin
     id 22 
     name lfingers
     direction 1 -4.49039e-011 -2.92602e-026   
     length 0.363545   
     axis 1.86705e-014 90 90   XYZ
    dof rx
    limits (0.0 90.0)
  end
  begin
     id 23
     name lthumb
     direction 0.707107 -6.34941e-011 0.707107   
     length 0.52198   
     axis -90 45 2.85299e-015   XYZ
    dof rx rz
    limits (-45.0 45.0)
           (-45.0 45.0)
  end
  begin
     id 24 
     name rclavicle
     direction -0.825079 0.56158 -0.0622297   
     length 3.39909  
     axis 0 0 0   XYZ 
    dof ry rz
    limits (-10.0 20.0)
           (-20.0 0.0)
  end
  begin
     id 25 
     name rhumerus
     direction -1 -4.48965e-011 1.61691e-027  
     length 4.86725   
     axis -180 30 90   XYZ
    dof rx ry rz
    limits (-90.0 60.0)
           (-90.0 90.0)
           (-90.0 90.0)
  end
  begin
     id 26 
     name rradius
     direction -1 -4.48964e-011 -2.25776e-027   
     length 3.17144   
     axis -180 30 90   XYZ
    dof rx
    limits (-10.0 170.0)
  end
  begin
     id 27 
     name rwrist
     direction -1 -4.48961e-011 -7.31504e-027   
     length 1.58572   
     axis 5.74121e-015 -90 -90   XYZ
    dof ry
    limits (-180.0 0.0)
  end
  begin
     id 28
     name rhand
     direction -1 -4.49013e-011 -1.46301e-026   
     length 0.419368   
     axis 9.33524e-015 -90 -90   XYZ
    dof rx rz
    limits (-90.0 90.0)
           (-45.0 45.0)
  end
  begin
     id 29
     name rfingers
     direction -1 -4.489e-011 -2.92602e-026   
     length 0.338105   
     axis 1.86705e-014 -90 -90   XYZ
    dof rx
    limits (0.0 90.0)
  end
  begin
     id 30
     name rthumb
     direction -0.707107 -6.35022e-011 0.707107   
     length 0.485453   
     axis -90 -45 -2.85299e-015   XYZ
    dof rx rz
    limits (-45.0 45.0)
           (-45.0 45.0)
  end
:hierarchy
  begin
    root lhipjoint rhipjoint lowerback
    lhipjoint lfemur
    lfemur ltibia
    ltibia lfoot
    lfoot ltoes
    rhipjoint rfemur
    rfemur rtibia
    rtibia rfoot
    rfoot rtoes
    lowerback upperback
    upperback thorax
    thorax lowerneck lclavicle rclavicle
    lowerneck upperneck
    upperneck head
    lclavicle lhumerus
    lhumerus lradius
    lradius lwrist
    lwrist lhand lthumb
    lhand lfingers
    rclavicle rhumerus
    rhumerus rradius
    rradius rwrist
    rwrist rhand rthumb
    rhand rfingers
  end

#!OML:ASF H:\Swim 2\Project 1\Capture day 1\Session 1\male.ASF
:FULLY-SPECIFIED
:DEGREES
236
root 4.75552 15.1037 10.66 101.1 -19.5232 9.05239
lowerback -25.8769 4.82052 15.4932
upperback -9.14918 3.12578 -11.6457
thorax 5.57218 1.31503 -20.9239
lowerneck -24.2497 -0.800759 -2.95955
upperneck 31.6368 -4.39208 12.078
head 15.6742 -0.47372 4.80017
rclavicle 3.37934e-014 -2.06736e-014
rhumerus 43.8114 -53.8546 -1.76358
rradius 39.5401
rwrist -35.9308
rhand 26.179 -4.85182
rfingers 7.12502
rthumb 50.2413 -25.9469
lclavicle 3.37934e-014 -2.06736e-014
lhumerus 238.619 -226.858 -189.514
lradius 33.2293
lwrist 34.7715
lhand -12.0248 -5.76587
lfingers 7.12502
lthumb 14.0331 23.7404
rfemur -54.1245 -8.8036 29.2854
rtibia 81.1133
rfoot 17.9972 -12.3393
rtoes 9.9744
lfemur -50.9804 4.81777 -25.5728
ltibia 75.4182
lfoot 26.4409 -10.7857
ltoes -2.81432
237
root 4.78049 15.109 10.6379 101.321 -19.5065 9.16545
lowerback -25.9944 4.77316 15.4626
upperback -9.05044 3.05334 -11.6372
thorax 5.6995 1.29853 -20.9187
lowerneck -23.9137 -0.684515 -2.88357
upperneck 32.8234 -4.50281 12.3839
head 16.2007 -0.467123 4.98605
rclavicle -2.22639e-014 1.47101e-014
rhumerus 47.35 -53.8036 -3.97199
rradius 39.5425
rwrist -36.6968
rhand 27.0158 -5.19508
rfingers 7.12502
rthumb 51.0051 -25.8736
lclavicle -2.22639e-014 1.47101e-014
lhumerus 241.447 -227.233 -188.149
lradius 33.79
lwrist 34.6532
lhand -9.57209 -5.87482
lfingers 7.12502
lthumb 16.3957 23.4522
rfemur -53.6301 -8.53129 29.3193
rtibia 79.7274
rfoot 18.2332 -12.3908
rtoes 9.06801
lfemur -50.7036 4.53886 -25.3729
ltibia 74.2458
lfoot 26.4474 -10.5228
ltoes -2.91939
238
root 4.8058 15.1128 10.617 101.567 -19.518 9.24437
lowerback -26.1342 4.74175 15.4053
upperback -8.93855 3.00934 -11.6462
thorax 5.86541 1.30269 -20.9086
lowerneck -23.546 -0.597296 -2.7627
upperneck 33.9354 -4.66473 12.6711
head 16.7081 -0.481625 5.14842
rclavicle -5.04913e-014 1.55052e-014
rhumerus 50.6428 -53.6224 -6.09222
rradius 39.5711
rwrist -37.578
rhand 27.8907 -5.64538
rfingers 7.12502
rthumb 51.801 -25.8685
lclavicle -5.04913e-014 1.55052e-014
lhumerus 244.157 -227.526 -186.887
lradius 34.5002
lwrist 35.3484
lhand -7.05079 -5.94214
lfingers 7.12502
lthumb 18.822 23.1672
rfemur -53.0962 -8.22191 29.3161
rtibia 78.0816
rfoot 18.4539 -12.5978
rtoes 8.1995
lfemur -50.3716 4.21894 -25.2061
ltibia 72.7496
lfoot 26.9993 -10.3072
ltoes -0.792035
239
root 4.83167 15.1154 10.5974 101.841 -19.5544 9.28668
lowerback -26.2889 4.72824 15.3332
upperback -8.81665 2.99434 -11.67
thorax 6.06327 1.32663 -20.8977
lowerneck -23.134 -0.517693 -2.57996
upperneck 34.9513 -4.83326 12.8983
head 17.1706 -0.501726 5.26912
rclavicle 1.82882e-014 -8.15017e-015
rhumerus 53.683 -53.3212 -8.08275
rradius 39.597
rwrist -38.4964
rhand 28.7923 -6.20874
rfingers 7.12502
rthumb 52.6179 -25.9401
lclavicle 1.82882e-014 -8.15017e-015
lhumerus 246.744 -227.752 -185.729
lradius 35.3307
lwrist 36.6652
lhand -4.56633 -5.87684
lfingers 7.12502
lthumb 21.21 22.9828
rfemur -52.5352 -7.88253 29.2841
rtibia 76.1899
rfoot 18.6671 -12.9606
rtoes 7.49248
lfemur -49.9868 3.85349 -25.0669
ltibia 70.9354
lfoot 27.9297 -10.1175
ltoes 2.91811
240
root 4.8582 15.1163 10.5792 102.152 -19.61 9.27886
lowerback -26.4537 4.73091 15.2575
upperback -8.6879 3.00241 -11.6968
thorax 6.28362 1.36558 -20.8796
lowerneck -22.6894 -0.41745 -2.32476
upperneck 35.8663 -4.94593 13.0113
head 17.571 -0.506489 5.32922
rclavicle 3.73715e-014 2.20651e-014
rhumerus 56.5024 -52.9089 -9.9263
rradius 39.5982
rwrist -39.3995
rhand 29.7023 -6.89018
rfingers 7.12502
rthumb 53.4391 -26.1005
lclavicle 3.73715e-014 2.20651e-014
lhumerus 249.143 -227.935 -184.728
lradius 36.2371
lwrist 38.3303
lhand -2.23496 -5.6389
lfingers 7.12502
lthumb 23.448 22.9524
rfemur -51.9618 -7.49832 29.2261
rtibia 74.0661
rfoot 18.7619 -13.3325
rtoes 6.92368
lfemur -49.5618 3.44961 -24.9473
ltibia 68.8245
lfoot 28.8909 -9.95167
ltoes 6.74015
241
root 4.88515 15.1155 10.5625 102.501 -19.6823 9.22608
lowerback -26.6292 4.74398 15.1871
upperback -8.55223 3.02196 -11.7179
thorax 6.5208 1.41248 -20.8529
lowerneck -22.2298 -0.286065 -1.99744
upperneck 36.6844 -4.96764 12.9705
head 17.9022 -0.485481 5.31343
rclavicle 1.74931e-014 1.49089e-014
rhumerus 59.1514 -52.4031 -11.6398
rradius 39.5557
rwrist -40.2011
rhand 30.5788 -7.63648
rfingers 7.12502
rthumb 54.2265 -26.3202
lclavicle 1.74931e-014 1.49089e-014
lhumerus 251.352 -228.093 -183.871
lradius 37.1405
lwrist 39.9363
lhand -0.141316 -5.29859
lfingers 7.12502
lthumb 25.455 23.0215
rfemur -51.3844 -7.08282 29.1482
rtibia 71.7228
rfoot 18.787 -13.6885
rtoes 6.48648
lfemur -49.1099 3.00286 -24.8396
ltibia 66.4483
lfoot 29.9653 -9.74968
ltoes 11.0095
242
root 4.91247 15.1126 10.5472 102.887 -19.7589 9.13551
lowerback -26.8209 4.76651 15.1359
upperback -8.41052 3.04627 -11.7269
thorax 6.77292 1.46325 -20.8204
lowerneck -21.7604 -0.126777 -1.65091
upperneck 37.3848 -4.90212 12.8428
head 18.1545 -0.438569 5.25808
rclavicle 9.14409e-014 -2.98177e-015
rhumerus 61.6646 -51.8179 -13.2325
rradius 39.4491
rwrist -40.8153
rhand 31.4334 -8.37736
rfingers 7.12502
rthumb 54.9908 -26.5227
lclavicle 9.14409e-014 -2.98177e-015
lhumerus 253.39 -228.226 -183.124
lradius 37.9617
lwrist 41.1149
lhand 1.63805 -4.98983
lfingers 7.12502
lthumb 27.1584 23.0759
rfemur -50.8053 -6.63488 29.0587
rtibia 69.1736
rfoot 18.7476 -14.0276
rtoes 6.24813
lfemur -48.6474 2.51102 -24.7236
ltibia 63.8482
lfoot 30.1714 -9.57663
ltoes 11.5926
243
root 4.93954 15.1077 10.5335 103.294 -19.8254 9.01803
lowerback -27.0133 4.78958 15.1099
upperback -8.26443 3.06241 -11.717
thorax 7.02481 1.50948 -20.7824
lowerneck -21.2837 0.056714 -1.32312
upperneck 37.9599 -4.75965 12.6838
head 18.3256 -0.368306 5.19297
rclavicle -4.05521e-014 -1.14898e-013
rhumerus 64.0458 -51.1557 -14.7128
rradius 39.2899
rwrist -41.2206
rhand 32.2075 -9.10135
rfingers 7.12502
rthumb 55.6799 -26.7365
lclavicle -4.05521e-014 -1.14898e-013
lhumerus 255.3 -228.319 -182.442
lradius 38.6282
lwrist 41.5918
lhand 3.08412 -4.88824
lfingers 7.12502
lthumb 28.5409 22.9535
rfemur -50.2096 -6.16214 28.9729
rtibia 66.4328
rfoot 18.6748 -14.3386
rtoes 6.05707
lfemur -48.1804 1.97281 -24.5751
ltibia 61.071
lfoot 30.3629 -9.35382
ltoes 12.1737
244
root 4.96557 15.1007 10.5216 103.716 -19.8754 8.87735
lowerback -27.2144 4.81212 15.1068
upperback -8.11561 3.06816 -11.6894
thorax 7.27731 1.54993 -20.7397
lowerneck -20.8121 0.248992 -1.03581
upperneck 38.4329 -4.57845 12.5424
head 18.4383 -0.286632 5.14082
rclavicle 1.51076e-014 7.13637e-014
rhumerus 66.2991 -50.4193 -16.1038
rradius 39.0868
rwrist -41.4382
rhand 32.8636 -9.78444
rfingers 7.12502
rthumb 56.2614 -26.9696
lclavicle 1.51076e-014 7.13637e-014
lhumerus 257.175 -228.343 -181.73
lradius 39.076
lwrist 41.2429
lhand 4.19769 -5.07299
lfingers 7.12502
lthumb 29.6044 22.5852
rfemur -49.5913 -5.66222 28.8924
rtibia 63.5197
rfoot 18.579 -14.6277
rtoes 5.86718
lfemur -47.721 1.39845 -24.3836
ltibia 58.1669
lfoot 30.5212 -9.09389
ltoes 12.6467
245
root 4.9902 15.092 10.5119 104.133 -19.904 8.72385
lowerback -27.4134 4.83038 15.1266
upperback -7.963 3.05973 -11.6452
thorax 7.52539 1.58252 -20.696
lowerneck -20.3446 0.448156 -0.829743
upperneck 38.8038 -4.37409 12.4871
head 18.4974 -0.197563 5.13967
rclavicle 2.38542e-014 8.85586e-014
rhumerus 68.4409 -49.6169 -17.4465
rradius 38.8418
rwrist -41.5061
rhand 33.3265 -10.3895
rfingers 7.12502
rthumb 56.6702 -27.247
lclavicle 2.38542e-014 8.85586e-014
lhumerus 259.099 -228.273 -180.902
lradius 39.2781
lwrist 40.1579
lhand 5.03995 -5.57333
lfingers 7.12502
lthumb 30.4081 21.9393
rfemur -48.9374 -5.14803 28.822
rtibia 60.4591
rfoot 18.4951 -14.8594
rtoes 5.56196
lfemur -47.2675 0.789851 -24.1389
ltibia 55.1885
lfoot 30.6232 -8.73714
ltoes 13.141
246
root 5.01272 15.082 10.5049 104.54 -19.9084 8.55943
lowerback -27.6097 4.84508 15.1595
upperback -7.81037 3.04111 -11.5879
thorax 7.76646 1.60888 -20.6478
lowerneck -19.8819 0.65821 -0.704701
upperneck 39.0913 -4.15905 12.5516
head 18.5156 -0.102132 5.20565
rclavicle -5.56597e-015 -4.87022e-015
rhumerus 70.5159 -48.7499 -18.8162
rradius 38.5421
rwrist -41.4587
rhand 33.5353 -10.9074
rfingers 7.12502
rthumb 56.8541 -27.6143
lclavicle -5.56597e-015 -4.87022e-015
lhumerus 261.17 -228.068 -179.857
lradius 39.2274
lwrist 38.5772
lhand 5.68104 -6.31013
lfingers 7.12502
lthumb 31.0193 21.0877
rfemur -48.2469 -4.61494 28.7599
rtibia 57.2805
rfoot 18.4309 -15.0429
rtoes 5.09994
lfemur -46.8321 0.138862 -23.8291
ltibia 52.1931
lfoot 30.6499 -8.24706
ltoes 13.6458
